<svg width="12" height="14" viewBox="0 0 12 14" fill="none" xmlns="http://www.w3.org/2000/svg">
<path d="M7.99984 9.99984H11.3332L10.3965 9.06317C10.1425 8.80908 9.99978 8.46447 9.99984 8.10517V5.99984C10 4.30431 8.9316 2.79272 7.33317 2.22717V1.99984C7.33317 1.26395 6.73572 0.666504 5.99984 0.666504C5.26395 0.666504 4.6665 1.26395 4.6665 1.99984V2.22717C3.11317 2.7765 1.99984 4.2585 1.99984 5.99984V8.10584C1.99984 8.4645 1.85717 8.80917 1.60317 9.06317L0.666504 9.99984H3.99984M7.99984 9.99984V10.6665C7.99984 11.7703 7.10367 12.6665 5.99984 12.6665C4.89601 12.6665 3.99984 11.7703 3.99984 10.6665V9.99984M7.99984 9.99984H3.99984" stroke="#475569" stroke-width="1.33333" stroke-linecap="round" stroke-linejoin="round"/>
</svg>
